<svg viewBox="0 0 20 20" xmlns="http://www.w3.org/2000/svg" fill="#5865f2">
  <path
    d="M16.9559 3.69287C15.6517 3.09619 14.2673 2.66189 12.8216 2.41931C12.6396 2.73232 12.4375 3.15684 12.296 3.49072C10.7777 3.2684 9.23518 3.2684 7.71692 3.49072C7.55803 3.12581 7.38265 2.76831 7.19132 2.41931C5.76242 2.65775 4.37178 3.08606 3.05634 3.69287C0.438795 7.55332 -0.269389 11.3238 0.084703 15.0427C1.82321 16.3065 3.50107 17.0747 5.14959 17.5794C5.55802 17.028 5.91967 16.4434 6.23077 15.8318C5.63798 15.6103 5.06619 15.3362 4.52226 15.0127C4.66442 14.9116 4.80593 14.8008 4.937 14.6893C8.23208 16.1956 11.801 16.1956 15.0557 14.6893C15.1972 14.8001 15.3283 14.9116 15.4698 15.0127C14.924 15.3362 14.3579 15.6094 13.7613 15.8311C14.0749 16.448 14.4394 17.0342 14.8438 17.5801C16.6636 17.028 18.3761 16.1702 19.908 15.0434C20.3423 10.7375 19.2194 6.99773 16.9559 3.69287ZM6.68529 12.7486C5.6954 12.7486 4.88679 11.8487 4.88679 10.7473C4.88679 9.64592 5.67518 8.74601 6.68594 8.74601C7.68627 8.74601 8.50531 9.64592 8.48444 10.748C8.48444 11.8494 7.68627 12.7486 6.68594 12.7486H6.68529ZM13.327 12.7486C12.3364 12.7486 11.5272 11.8487 11.5272 10.7473C11.5272 9.64592 12.3162 8.74601 13.327 8.74601C14.3279 8.74601 15.1463 9.64592 15.1268 10.748C15.1268 11.8494 14.3377 12.7486 13.327 12.7486Z"
  />
</svg>