<svg
  width="30"
  viewBox="0 0 30 30"
  fill="currentColor"
  xmlns="http://www.w3.org/2000/svg"
>
  <path
    fill-rule="evenodd"
    clip-rule="evenodd"
    d="M15.1005 0.412601C11.5824 0.410419 8.17836 1.66071 5.49808 3.93957C2.81781 6.21843 1.03631 9.37702 0.472618 12.8497C-0.0910683 16.3223 0.599876 19.8822 2.42172 22.8919C4.24356 25.9016 7.0773 28.1644 10.4155 29.2751C11.158 29.4126 11.428 28.9551 11.428 28.5626C11.428 28.2126 11.4155 27.2801 11.408 26.0451C7.28797 26.9376 6.41797 24.0576 6.41797 24.0576C5.74297 22.3476 4.77547 21.8926 4.77547 21.8926C3.43047 20.9751 4.87547 20.9926 4.87547 20.9926C6.36297 21.0976 7.14547 22.5176 7.14547 22.5176C8.46547 24.7826 10.6105 24.1276 11.4555 23.7476C11.588 22.7926 11.9705 22.1401 12.3955 21.7701C9.10547 21.3951 5.64797 20.1251 5.64797 14.4501C5.64797 12.8351 6.22547 11.5126 7.17297 10.4751C7.02297 10.1026 6.51297 8.5951 7.31797 6.5576C7.31797 6.5576 8.56047 6.1576 11.393 8.0751C12.5705 7.7476 13.838 7.5826 15.098 7.5751C16.3504 7.57753 17.5971 7.74566 18.8055 8.0751C21.6305 6.1601 22.873 6.5576 22.873 6.5576C23.6805 8.5951 23.173 10.1026 23.023 10.4776C23.973 11.5126 24.543 12.8351 24.543 14.4526C24.543 20.1401 21.0805 21.3926 17.783 21.7576C18.313 22.2151 18.788 23.1176 18.788 24.5001C18.788 26.4801 18.768 28.0751 18.768 28.5626C18.768 28.9576 19.0355 29.4201 19.788 29.2751C23.1203 28.1586 25.9473 25.8938 27.7639 22.8853C29.5804 19.8767 30.2683 16.3203 29.7046 12.8514C29.1409 9.38246 27.3624 6.22687 24.6867 3.94829C22.011 1.6697 18.6149 0.416529 15.1005 0.412601Z"
  />
</svg>