<svg xmlns="http://www.w3.org/2000/svg" viewBox="0 0 367 100" fill="#e10098">
  <style>
    svg {
      fill: color(display-p3 0.8824 0 0.5961);
    }
  </style>
  <path
    fill-rule="evenodd"
    clip-rule="evenodd"
    d="M50 6.4678L87.7 28.2339V71.7661L50 93.5322L12.3 71.7661V28.2339L50 6.4678ZM16.53 30.6761V62.6517L44.2217 14.6883L16.53 30.6761ZM50 13.14L18.0783 68.43H81.9217L50 13.14ZM77.6917 72.66H22.3083L50 88.6478L77.6917 72.66ZM83.47 62.6517L55.7783 14.6883L83.47 30.6761V62.6517Z"
  />
  <circle cx="14.41" cy="29.45" r="8.91" />
  <circle cx="14.41" cy="70.545" r="8.91" />
  <circle cx="50" cy="91.09" r="8.91" />
  <circle cx="85.585" cy="70.545" r="8.91" />
  <circle cx="85.585" cy="29.455" r="8.91" />
  <circle cx="50" cy="8.91" r="8.91" />
  <path
    d="M138.875 71.625C133.667 71.625 129.625 70.125 126.75 67.125C123.875 64.125 122.354 60.1042 122.188 55.0625C122.146 53.8125 122.125 51.8333 122.125 49.125C122.125 46.4167 122.146 44.4375 122.188 43.1875C122.354 38.1458 123.875 34.125 126.75 31.125C129.625 28.125 133.667 26.625 138.875 26.625C142.417 26.625 145.396 27.2917 147.813 28.625C150.229 29.9583 152.021 31.5417 153.188 33.375C154.396 35.1667 155.042 36.7708 155.125 38.1875V38.3125C155.125 38.6458 155 38.9167 154.75 39.125C154.5 39.3333 154.188 39.4375 153.812 39.4375H152.438C152.063 39.4375 151.792 39.3542 151.625 39.1875C151.458 39.0208 151.292 38.6875 151.125 38.1875C150.417 35.9792 149.042 34.125 147 32.625C145 31.125 142.292 30.375 138.875 30.375C135 30.375 131.938 31.4375 129.688 33.5625C127.479 35.6875 126.292 39 126.125 43.5C126.083 44.75 126.063 46.625 126.063 49.125C126.063 51.625 126.083 53.5 126.125 54.75C126.292 59.25 127.479 62.5625 129.688 64.6875C131.938 66.8125 135 67.875 138.875 67.875C142.75 67.875 145.875 66.7708 148.25 64.5625C150.625 62.3542 151.812 59.0833 151.812 54.75V51.5625H140.938C140.521 51.5625 140.188 51.4375 139.938 51.1875C139.688 50.8958 139.563 50.5417 139.563 50.125V49.25C139.563 48.8333 139.688 48.5 139.938 48.25C140.188 47.9583 140.521 47.8125 140.938 47.8125H154.312C154.771 47.8125 155.125 47.9375 155.375 48.1875C155.625 48.4375 155.75 48.7917 155.75 49.25V54.75C155.75 58.0833 155.083 61.0208 153.75 63.5625C152.417 66.1042 150.479 68.0833 147.938 69.5C145.396 70.9167 142.375 71.625 138.875 71.625Z"
  />
  <path
    d="M165.941 71C165.525 71 165.191 70.875 164.941 70.625C164.691 70.375 164.566 70.0417 164.566 69.625V39.9375C164.566 39.5208 164.691 39.1875 164.941 38.9375C165.191 38.6458 165.525 38.5 165.941 38.5H166.941C167.358 38.5 167.691 38.6458 167.941 38.9375C168.233 39.1875 168.379 39.5208 168.379 39.9375V42.8125C169.879 39.9375 172.712 38.5 176.879 38.5H179.191C179.608 38.5 179.941 38.625 180.191 38.875C180.441 39.125 180.566 39.4583 180.566 39.875V40.75C180.566 41.1667 180.441 41.5 180.191 41.75C179.941 42 179.608 42.125 179.191 42.125H176.504C174.004 42.125 172.025 42.8542 170.566 44.3125C169.108 45.7708 168.379 47.75 168.379 50.25V69.625C168.379 70.0417 168.233 70.375 167.941 70.625C167.691 70.875 167.358 71 166.941 71H165.941Z"
  />
  <path
    d="M194.557 71.625C192.557 71.625 190.702 71.2083 188.994 70.375C187.286 69.5417 185.911 68.4167 184.869 67C183.869 65.5833 183.369 64.0208 183.369 62.3125C183.369 59.5625 184.473 57.3125 186.682 55.5625C188.932 53.8125 191.952 52.6875 195.744 52.1875L205.619 50.8125V48.625C205.619 46.3333 204.911 44.5833 203.494 43.375C202.119 42.125 199.994 41.5 197.119 41.5C194.994 41.5 193.244 41.9167 191.869 42.75C190.536 43.5833 189.682 44.5833 189.307 45.75C189.14 46.25 188.932 46.6042 188.682 46.8125C188.473 46.9792 188.182 47.0625 187.807 47.0625H186.932C186.557 47.0625 186.223 46.9375 185.932 46.6875C185.682 46.3958 185.557 46.0625 185.557 45.6875C185.557 44.7708 185.973 43.7083 186.807 42.5C187.64 41.25 188.932 40.1667 190.682 39.25C192.432 38.3333 194.577 37.875 197.119 37.875C201.577 37.875 204.744 38.9375 206.619 41.0625C208.494 43.1875 209.432 45.7708 209.432 48.8125V69.625C209.432 70.0417 209.307 70.375 209.057 70.625C208.807 70.875 208.473 71 208.057 71H206.994C206.577 71 206.244 70.875 205.994 70.625C205.744 70.375 205.619 70.0417 205.619 69.625V66.6875C204.702 68.0625 203.348 69.2292 201.557 70.1875C199.807 71.1458 197.473 71.625 194.557 71.625ZM195.182 68C198.223 68 200.723 67 202.682 65C204.64 63 205.619 60.125 205.619 56.375V54.25L197.557 55.375C194.14 55.8333 191.557 56.625 189.807 57.75C188.057 58.875 187.182 60.2917 187.182 62C187.182 63.9167 187.973 65.3958 189.557 66.4375C191.182 67.4792 193.057 68 195.182 68Z"
  />
  <path
    d="M220.752 82.875C220.336 82.875 220.002 82.75 219.752 82.5C219.502 82.25 219.377 81.9167 219.377 81.5V39.875C219.377 39.4583 219.502 39.125 219.752 38.875C220.002 38.625 220.336 38.5 220.752 38.5H221.815C222.232 38.5 222.565 38.625 222.815 38.875C223.065 39.125 223.19 39.4583 223.19 39.875V42.8125C225.607 39.5208 229.107 37.875 233.69 37.875C238.19 37.875 241.502 39.3125 243.627 42.1875C245.794 45.0208 246.94 48.5208 247.065 52.6875C247.107 53.1042 247.127 53.7917 247.127 54.75C247.127 55.7083 247.107 56.3958 247.065 56.8125C246.94 60.9792 245.794 64.5 243.627 67.375C241.502 70.2083 238.19 71.625 233.69 71.625C229.148 71.625 225.648 69.9792 223.19 66.6875V81.5C223.19 81.9167 223.065 82.25 222.815 82.5C222.565 82.75 222.232 82.875 221.815 82.875H220.752ZM233.315 68C236.69 68 239.148 66.9375 240.69 64.8125C242.273 62.6458 243.127 59.875 243.252 56.5C243.294 56.0833 243.315 55.5 243.315 54.75C243.315 50.875 242.565 47.7083 241.065 45.25C239.565 42.75 236.982 41.5 233.315 41.5C230.023 41.5 227.544 42.6042 225.877 44.8125C224.211 46.9792 223.315 49.5417 223.19 52.5L223.127 54.9375L223.19 57.375C223.232 59.1667 223.627 60.875 224.377 62.5C225.127 64.0833 226.252 65.3958 227.752 66.4375C229.252 67.4792 231.107 68 233.315 68Z"
  />
  <path
    d="M257.068 71C256.652 71 256.318 70.875 256.068 70.625C255.818 70.375 255.693 70.0417 255.693 69.625V28C255.693 27.5833 255.818 27.25 256.068 27C256.318 26.75 256.652 26.625 257.068 26.625H258.131C258.548 26.625 258.881 26.75 259.131 27C259.381 27.25 259.506 27.5833 259.506 28V42.8125C260.756 41.1875 262.173 39.9583 263.756 39.125C265.381 38.2917 267.464 37.875 270.006 37.875C274.089 37.875 277.235 39.1875 279.443 41.8125C281.652 44.3958 282.756 47.75 282.756 51.875V69.625C282.756 70.0417 282.631 70.375 282.381 70.625C282.131 70.875 281.798 71 281.381 71H280.318C279.902 71 279.568 70.875 279.318 70.625C279.068 70.375 278.943 70.0417 278.943 69.625V52.1875C278.943 48.8125 278.11 46.1875 276.443 44.3125C274.818 42.4375 272.464 41.5 269.381 41.5C266.381 41.5 263.985 42.4583 262.193 44.375C260.402 46.25 259.506 48.8542 259.506 52.1875V69.625C259.506 70.0417 259.381 70.375 259.131 70.625C258.881 70.875 258.548 71 258.131 71H257.068Z"
  />
  <path
    d="M321.682 75.0625C321.057 75.0625 320.39 74.5833 319.682 73.625L316.932 69.8125C314.432 71.0208 311.515 71.625 308.182 71.625C297.474 71.625 291.974 65.875 291.682 54.375C291.64 53.125 291.62 51.375 291.62 49.125C291.62 46.875 291.64 45.125 291.682 43.875C291.849 38.2083 293.39 33.9167 296.307 31C299.224 28.0833 303.182 26.625 308.182 26.625C313.182 26.625 317.14 28.0833 320.057 31C322.974 33.9167 324.515 38.2083 324.682 43.875C324.765 46.375 324.807 48.125 324.807 49.125C324.807 50.125 324.765 51.875 324.682 54.375C324.474 60.3333 322.953 64.7083 320.12 67.5L324.12 73.125C324.245 73.375 324.307 73.6042 324.307 73.8125C324.307 74.1458 324.182 74.4375 323.932 74.6875C323.682 74.9375 323.39 75.0625 323.057 75.0625H321.682ZM308.182 67.875C311.932 67.875 314.911 66.75 317.12 64.5C319.37 62.2083 320.578 58.7292 320.745 54.0625C320.828 51.5625 320.87 49.9167 320.87 49.125C320.87 48.3333 320.828 46.6875 320.745 44.1875C320.578 39.5208 319.37 36.0625 317.12 33.8125C314.87 31.5208 311.89 30.375 308.182 30.375C304.474 30.375 301.495 31.5208 299.245 33.8125C296.995 36.0625 295.786 39.5208 295.62 44.1875C295.578 45.4375 295.557 47.0833 295.557 49.125C295.557 51.1667 295.578 52.8125 295.62 54.0625C295.786 58.7292 296.974 62.2083 299.182 64.5C301.432 66.75 304.432 67.875 308.182 67.875Z"
  />
  <path
    d="M336.126 71C335.71 71 335.376 70.875 335.126 70.625C334.876 70.375 334.751 70.0417 334.751 69.625V28.625C334.751 28.2083 334.876 27.875 335.126 27.625C335.376 27.375 335.71 27.25 336.126 27.25H337.314C337.731 27.25 338.064 27.375 338.314 27.625C338.564 27.875 338.689 28.2083 338.689 28.625V67.25H360.251C360.71 67.25 361.064 67.375 361.314 67.625C361.564 67.875 361.689 68.2292 361.689 68.6875V69.625C361.689 70.0417 361.543 70.375 361.251 70.625C361.001 70.875 360.668 71 360.251 71H336.126Z"
  />
</svg>